<svg xmlns="http://www.w3.org/2000/svg" version="1.1" xmlns:xlink="http://www.w3.org/1999/xlink" width="512" height="512" x="0" y="0" viewBox="0 0 330.006 330.006" style="enable-background:new 0 0 512 512" xml:space="preserve" class=""><g><path d="M304.302 209.419c-7.594-3.318-16.435.148-19.751 7.739-20.766 47.527-67.69 78.236-119.546 78.236-41.106 0-79.108-19.32-103.445-51.003l51.23 10.19c8.126 1.617 16.021-3.661 17.638-11.786 1.616-8.125-3.661-16.022-11.786-17.638l-84.004-16.709c-8.125-1.612-16.021 3.661-17.638 11.786L.291 304.238c-1.616 8.125 3.661 16.022 11.786 17.638.988.196 1.972.291 2.942.291 7.01 0 13.276-4.94 14.696-12.077l9.148-45.992c29.972 38.123 76.202 61.296 126.142 61.296 63.78 0 121.496-37.77 147.036-96.225 3.317-7.59-.148-16.433-7.739-19.75zM317.929 8.12c-8.125-1.614-16.022 3.661-17.638 11.786l-9.149 45.997C261.169 27.783 214.94 4.611 165.005 4.611c-63.779 0-121.495 37.771-147.038 96.224-3.317 7.591.148 16.434 7.739 19.751a14.958 14.958 0 0 0 5.999 1.259c5.781 0 11.29-3.362 13.753-8.998C66.226 65.32 113.151 34.61 165.006 34.61c41.099 0 79.1 19.316 103.437 50.995l-51.228-10.191c-8.127-1.615-16.022 3.66-17.639 11.785-1.616 8.125 3.66 16.022 11.785 17.639l84.006 16.711a15.01 15.01 0 0 0 11.26-2.24 14.998 14.998 0 0 0 6.378-9.546l16.709-84.006c1.617-8.124-3.66-16.021-11.785-17.637z" fill="#168afe" opacity="1" data-original="#168afe" class=""></path></g></svg>